<svg width="32" height="34" viewBox="0 0 32 34" fill="none" xmlns="http://www.w3.org/2000/svg">
<path d="M10.2668 20.8802C10.0216 20.6448 9.71039 20.4854 9.37245 20.4219C9.03451 20.3584 8.68487 20.3937 8.36745 20.5234C8.15121 20.5997 7.95482 20.7214 7.7922 20.88C7.62959 21.0385 7.50473 21.23 7.42647 21.4408C7.31358 21.6992 7.26814 21.9808 7.29422 22.2605C7.3203 22.5402 7.41708 22.8092 7.5759 23.0435C7.73473 23.2778 7.95065 23.47 8.20434 23.603C8.45803 23.736 8.74158 23.8056 9.02962 23.8056C9.31767 23.8056 9.60122 23.736 9.85491 23.603C10.1086 23.47 10.3245 23.2778 10.4833 23.0435C10.6422 22.8092 10.739 22.5402 10.765 22.2605C10.7911 21.9808 10.7457 21.6992 10.6328 21.4408C10.5446 21.2349 10.4209 21.0452 10.2668 20.8802ZM24.2074 20.8802C23.8704 20.577 23.4287 20.4087 22.9701 20.4087C22.5116 20.4087 22.0699 20.577 21.7329 20.8802C21.5789 21.0452 21.4551 21.2349 21.367 21.4408C21.2312 21.7498 21.1935 22.0914 21.2587 22.4215C21.3239 22.7516 21.4891 23.055 21.7329 23.2927C21.9022 23.4428 22.0968 23.5635 22.308 23.6495C22.5166 23.7393 22.7421 23.7856 22.9701 23.7856C23.1982 23.7856 23.4237 23.7393 23.6323 23.6495C23.8433 23.5631 24.0378 23.4425 24.2074 23.2927C24.4512 23.055 24.6164 22.7516 24.6816 22.4215C24.7468 22.0914 24.7091 21.7498 24.5733 21.4408C24.4852 21.2349 24.3614 21.0452 24.2074 20.8802ZM28.738 28.7039C29.9715 27.7451 30.913 26.4761 31.4609 25.0339C32.0088 23.5916 32.1422 22.0308 31.8468 20.52L29.2329 6.92834C28.8582 4.9812 27.7973 3.22297 26.2336 1.9578C24.67 0.692634 22.7019 0.000101594 20.67 0H11.3281C9.2964 0.000497756 7.32877 0.69321 5.76547 1.95834C4.20217 3.22348 3.14149 4.98148 2.76685 6.92834L0.152999 20.52C-0.142229 22.031 -0.0085377 23.5918 0.53964 25.0341C1.08782 26.4764 2.02966 27.7453 3.26348 28.7039L0.827372 31.079C0.660939 31.2357 0.528187 31.4232 0.436861 31.6305C0.345535 31.8378 0.297464 32.0607 0.295453 32.2863C0.293443 32.5119 0.337533 32.7356 0.425151 32.9444C0.512768 33.1532 0.642159 33.3429 0.805773 33.5024C0.969387 33.6619 1.16395 33.7881 1.3781 33.8735C1.59226 33.9589 1.82172 34.0019 2.05309 33.9999C2.28447 33.998 2.51313 33.9511 2.72573 33.8621C2.93833 33.773 3.13061 33.6436 3.29136 33.4813L6.54996 30.3043C7.25607 30.4844 7.98259 30.5775 8.71248 30.5812H23.2838C24.0148 30.5783 24.7425 30.4858 25.4498 30.306L28.7067 33.4813C29.0353 33.7908 29.4755 33.9621 29.9324 33.9582C30.3893 33.9543 30.8263 33.7756 31.1494 33.4606C31.4725 33.1456 31.6558 32.7195 31.6597 32.2741C31.6637 31.8286 31.4881 31.3994 31.1707 31.079L28.738 28.7039ZM6.18924 7.55526C6.41471 6.38674 7.05182 5.33175 7.99047 4.57264C8.92911 3.81353 10.1103 3.39801 11.3298 3.39791H20.6734C21.8924 3.3988 23.0727 3.81468 24.0106 4.57372C24.9486 5.33277 25.5852 6.38732 25.8105 7.55526L26.4152 10.6983C25.1142 12.142 23.5125 13.2985 21.7167 14.0908C19.921 14.8831 17.9727 15.2929 16.0016 15.2929C14.0306 15.2929 12.0822 14.8831 10.2865 14.0908C8.4908 13.2985 6.88903 12.142 5.58806 10.6983L6.18924 7.55526ZM27.3039 25.3416C26.8146 25.9182 26.2007 26.3823 25.506 26.7007C24.8114 27.0191 24.0531 27.1839 23.2855 27.1833H8.71422C7.94615 27.1832 7.18755 27.018 6.49238 26.6996C5.7972 26.3812 5.18253 25.9173 4.69209 25.341C4.20164 24.7647 3.84747 24.0901 3.65477 23.3652C3.46206 22.6403 3.43556 21.8829 3.57714 21.1469L4.8161 14.7045C7.945 17.2777 11.9065 18.6891 15.9999 18.6891C20.0933 18.6891 24.0548 17.2777 27.1837 14.7045L28.4209 21.1469C28.5638 21.883 28.5378 22.6408 28.345 23.366C28.1522 24.0912 27.7973 24.7659 27.3056 25.3416H27.3039Z" fill="white"/>
</svg>
