<svg width="34" height="32" viewBox="0 0 34 32" fill="none" xmlns="http://www.w3.org/2000/svg">
<path d="M7.84615 0C4.96923 0 2.61538 2.4 2.61538 5.33333V12H0V16H2.61538V30.6667C2.61538 31.4 3.20385 32 3.92308 32H7.84615L8.296 30.6667H25.704L26.1538 32H30.0769C30.7962 32 31.3846 31.4 31.3846 30.6667V16H34V12H31.3846V5.33333C31.3846 2.4 29.0308 0 26.1538 0H7.84615ZM7.84615 2.66667H26.1538C27.6145 2.66667 28.7692 3.844 28.7692 5.33333H5.23077C5.23077 3.844 6.38546 2.66667 7.84615 2.66667ZM5.23077 8H15.6923V17.3333H5.23077V8ZM18.3077 8H28.7692V17.3333H18.3077V8ZM5.23077 20H28.7692V28H5.23077V20ZM6.53846 22.6667V25.3333H11.7692V22.6667H6.53846ZM22.2308 22.6667V25.3333H27.4615V22.6667H22.2308Z" fill="white"/>
</svg>
